<?xml version="1.0" encoding="utf-8"?>
<!-- Generator: Adobe Illustrator 24.1.2, SVG Export Plug-In . SVG Version: 6.00 Build 0)  -->
<svg version="1.1" id="Layer_1" xmlns="http://www.w3.org/2000/svg" xmlns:xlink="http://www.w3.org/1999/xlink" x="0px" y="0px"
	 viewBox="0 0 512 512" style="enable-background:new 0 0 512 512;" xml:space="preserve">
<style type="text/css">
	.st0{fill:none;stroke:#393636;stroke-width:20;stroke-miterlimit:10;}
	.st1{fill:none;}
	.st2{fill:#FF0000;stroke:#FF0000;stroke-width:15;stroke-miterlimit:10;}
</style>
<path class="st0" d="M404.7,465H107.3C74,465,47,438,47,404.7V107.3C47,74,74,47,107.3,47h297.4C438,47,465,74,465,107.3v297.4
	C465,438,438,465,404.7,465z"/>
<path class="st1" d="M119.9,188"/>
<path class="st2" d="M413.3,202.1c0-42.2-34.2-76.4-76.4-76.4c-42.2,0-76.4,34.2-76.4,76.4c0,4.6,0.4,9.2,1.2,13.6
	c-1.4-0.1-2.8-0.2-4.2-0.2c-1.1,0-2.2,0.1-3.2,0.1c0.8-4.4,1.2-8.9,1.2-13.5c0-42.2-34.2-76.4-76.4-76.4s-81.2,34.5-76.4,76.4
	c3.8,33.3,29.9,61.9,29.9,61.9l124.8,132.4L382.4,264C382.4,264,413.3,233.1,413.3,202.1z"/>
</svg>
