<?xml version="1.0" encoding="utf-8"?>
<!-- Generator: Adobe Illustrator 24.1.2, SVG Export Plug-In . SVG Version: 6.00 Build 0)  -->
<svg version="1.1" id="Layer_1" xmlns="http://www.w3.org/2000/svg" xmlns:xlink="http://www.w3.org/1999/xlink" x="0px" y="0px"
	 viewBox="0 0 448.5 188.4" style="enable-background:new 0 0 448.5 188.4;" xml:space="preserve">
<style type="text/css">
	.st0{fill:none;stroke:#393636;stroke-width:10;stroke-linecap:round;stroke-linejoin:round;}
	.st1{fill:#393636;stroke:#393636;stroke-linecap:round;stroke-linejoin:round;stroke-miterlimit:10;}
	.st2{fill:none;stroke:#393636;stroke-width:10;stroke-linecap:round;stroke-linejoin:round;stroke-miterlimit:10;}
</style>
<path class="st0" d="M426.1,81.3l-98.8-55.1c-0.9-0.5-1.8-0.9-2.7-1.2c-2.6-1.8-5.8-2.9-9.2-2.9H35.3c-8.7,0-15.7,6.7-15.7,15v114
	c0,8.3,7,15,15.7,15h280.1c3.1,0,6-0.9,8.5-2.4c1.2-0.3,2.3-0.8,3.4-1.4l98.8-55.1C436.4,101.4,436.4,87.1,426.1,81.3z"/>
<polygon class="st1" points="437.1,95.1 392.4,64.1 392.4,126.1 "/>
<line class="st2" x1="318.6" y1="22.4" x2="318.6" y2="166.1"/>
<line class="st2" x1="318.6" y1="94.8" x2="19.7" y2="94.8"/>
<line class="st2" x1="318.7" y1="94.8" x2="19.7" y2="94.8"/>
<line class="st2" x1="318.5" y1="131" x2="19.5" y2="131"/>
<line class="st2" x1="318.5" y1="58.6" x2="19.5" y2="58.6"/>
</svg>
