<?xml version="1.0" encoding="utf-8"?>
<!-- Generator: Adobe Illustrator 24.1.2, SVG Export Plug-In . SVG Version: 6.00 Build 0)  -->
<svg version="1.1" id="Layer_1" xmlns="http://www.w3.org/2000/svg" xmlns:xlink="http://www.w3.org/1999/xlink" x="0px" y="0px"
	 viewBox="0 0 398.7 198" style="enable-background:new 0 0 398.7 198;" xml:space="preserve">
<style type="text/css">
	.st0{fill:#989CD7;stroke:#989CD7;stroke-width:20;stroke-miterlimit:10;}
	.st1{fill:#FFFFFF;stroke:#FFFFFF;stroke-width:20;stroke-miterlimit:10;}
</style>
<path class="st0" d="M354,15h-96h-46.5h-24.6h-73.4H44.5c-15.9,0-28.9,10.8-28.9,24.2v119.5c0,13.4,12.9,24.2,28.9,24.2h69.1h73.4
	h24.6H258h96c15.9,0,28.9-10.8,28.9-24.2V39.3C382.8,25.9,369.9,15,354,15z"/>
<path class="st1" d="M156.6,99.1l63.6-36.7c0.3-0.2,0.7,0,0.7,0.4l0,73.4c0,0.4-0.4,0.6-0.7,0.4l-63.6-36.7
	C156.3,99.7,156.3,99.3,156.6,99.1z"/>
</svg>
