<?xml version="1.0" encoding="utf-8"?>
<!-- Generator: Adobe Illustrator 24.1.2, SVG Export Plug-In . SVG Version: 6.00 Build 0)  -->
<svg version="1.1" id="Layer_1" xmlns="http://www.w3.org/2000/svg" xmlns:xlink="http://www.w3.org/1999/xlink" x="0px" y="0px"
	 viewBox="0 0 512 512" style="enable-background:new 0 0 512 512;" xml:space="preserve">
<style type="text/css">
	.st0{fill:none;stroke:#393636;stroke-width:32;stroke-linecap:round;stroke-linejoin:round;}
	.st1{fill:#393636;stroke:#393636;stroke-width:32;stroke-linecap:round;stroke-linejoin:round;}
</style>
<path class="st0" d="M63.9,257.5c0-54.3,85.9-98.3,192.1-98.3"/>
<path class="st0" d="M447.4,257.5c0-54.3-83.2-98.3-186.1-98.3"/>
<path class="st0" d="M64.3,251c0,57.9,85.9,104.8,192.1,104.8"/>
<path class="st0" d="M447.8,251c0,57.9-83.2,104.8-186.1,104.8"/>
<path class="st1" d="M256,160.2c-10.9,0-21.3,2.5-30.6,6.9c11.5,7.8,19,20.9,19,35.8c0,23.9-19.4,43.2-43.2,43.2
	c-5.6,0-10.9-1.1-15.8-3c5.5,34,35,60,70.6,60c39.5,0,71.5-32,71.5-71.5C327.5,192.2,295.5,160.2,256,160.2z"/>
</svg>
