<?xml version="1.0" encoding="utf-8"?>
<!-- Generator: Adobe Illustrator 24.1.2, SVG Export Plug-In . SVG Version: 6.00 Build 0)  -->
<svg version="1.1" id="Layer_1" xmlns="http://www.w3.org/2000/svg" xmlns:xlink="http://www.w3.org/1999/xlink" x="0px" y="0px"
	 viewBox="0 0 512 512" style="enable-background:new 0 0 512 512;" xml:space="preserve">
<style type="text/css">
	.st0{fill:none;stroke:#393636;stroke-width:20;stroke-miterlimit:10;}
	.st1{fill:none;}
	.st2{fill:none;stroke:#393636;stroke-width:15;stroke-miterlimit:10;}
</style>
<path class="st0" d="M404.7,465H107.3C74,465,47,438,47,404.7V107.3C47,74,74,47,107.3,47h297.4C438,47,465,74,465,107.3v297.4
	C465,438,438,465,404.7,465z"/>
<path class="st1" d="M119.9,188"/>
<path class="st2" d="M413.3,202.1c0-42.2-34.2-76.4-76.4-76.4s-76.4,34.2-76.4,76.4c0,3.5,0.2,7,0.7,10.4c0.2,1.6-1.1,3-2.7,3
	c-0.3,0-0.7,0-1,0c0,0,0,0,0,0c-1.6,0-2.9-1.4-2.7-3c0.5-3.4,0.7-6.9,0.7-10.4c0-42.2-34.2-76.4-76.4-76.4s-81.2,34.5-76.4,76.4
	c3.8,33.3,29.9,61.9,29.9,61.9l122.9,130.4c1,1.1,2.8,1.1,3.9,0L382.4,264C382.4,264,413.3,233.1,413.3,202.1z"/>
</svg>
