<?xml version="1.0" encoding="utf-8"?>
<!-- Generator: Adobe Illustrator 24.1.2, SVG Export Plug-In . SVG Version: 6.00 Build 0)  -->
<svg version="1.1" id="Layer_1" xmlns="http://www.w3.org/2000/svg" xmlns:xlink="http://www.w3.org/1999/xlink" x="0px" y="0px"
	 viewBox="0 0 512 512" style="enable-background:new 0 0 512 512;" xml:space="preserve">
<style type="text/css">
	.st0{fill:none;stroke:#393636;stroke-width:20;stroke-miterlimit:10;}
	.st1{fill:none;stroke:#393636;stroke-width:14;stroke-miterlimit:10;}
</style>
<path class="st0" d="M431.5,465h-351C62,465,47,450,47,431.5v-351C47,62,62,47,80.5,47h351C450,47,465,62,465,80.5v351
	C465,450,450,465,431.5,465z"/>
<path class="st0" d="M327.8,410.3H185.2c-18.5,0-33.5-15-33.5-33.5v-98.4c0-18.5,15-33.5,33.5-33.5h142.5c18.5,0,33.5,15,33.5,33.5
	v98.4C361.3,395.3,346.3,410.3,327.8,410.3z"/>
<path class="st1" d="M186.7,247.2l-18.6-77.4c-1.6-6.7,2.5-13.4,9.2-15l11.3-2.7c6.7-1.6,13.4,2.5,15,9.2l20.1,83.6"/>
<path class="st1" d="M245.4,244.9l7.7-103.4c0.5-6.9,6.5-12,13.3-11.5l11.6,0.9c6.9,0.5,12,6.5,11.5,13.3l-7.7,103"/>
<path class="st1" d="M291.2,244.9l16.2-70.5c1.5-6.7,8.2-10.9,14.9-9.3l11.4,2.6c6.7,1.5,10.9,8.2,9.3,14.9l-14.8,64.7"/>
<circle class="st1" cx="178.4" cy="134.5" r="16.1"/>
<circle class="st1" cx="273.6" cy="113.3" r="16.1"/>
<circle class="st1" cx="331.6" cy="150.5" r="16.1"/>
<circle class="st1" cx="173.3" cy="113.3" r="6.2"/>
<circle class="st1" cx="275.2" cy="91.6" r="6.2"/>
<circle class="st1" cx="336.5" cy="129.4" r="6.2"/>
</svg>
